<?xml version="1.0" encoding="iso-8859-1"?>
<!-- Generator: Adobe Illustrator 16.0.0, SVG Export Plug-In . SVG Version: 6.00 Build 0)  -->
<!DOCTYPE svg PUBLIC "-//W3C//DTD SVG 1.1//EN" "http://www.w3.org/Graphics/SVG/1.1/DTD/svg11.dtd">
<svg version="1.1" id="Capa_1" xmlns="http://www.w3.org/2000/svg" xmlns:xlink="http://www.w3.org/1999/xlink" x="0px" y="0px"
	 width="447.645px" height="447.645px" viewBox="0 0 447.645 447.645" style="enable-background:new 0 0 447.645 447.645;"
	 xml:space="preserve">
<g>
	<path d="M447.639,244.402c0-8.805-1.988-17.215-5.578-24.909c-0.37-1.956-0.793-3.909-1.322-5.89l-38.884-96.365l-0.263-0.867
		c-13.605-40.509-32.963-78.001-82.049-78.001H131.868c-50.296,0-68.069,38.421-81.972,77.776l-40.673,96.6
		C3.343,222.167,0,232.944,0,244.402v29.986c0,4.636,0.548,9.171,1.59,13.539C0.577,290.566,0,293.41,0,296.408v89.185
		c0,13.078,10.602,23.682,23.68,23.682h49.14c13.071,0,23.673-10.604,23.673-23.682v-44.599h257.46v44.599
		c0,13.078,10.604,23.682,23.683,23.682h46.326c13.083,0,23.683-10.604,23.683-23.682v-89.195c0-2.987-0.583-5.844-1.588-8.474
		c1.038-4.375,1.588-8.905,1.588-13.54v-29.981H447.639z M78.754,125.821c15.483-43.683,27.934-57.018,53.114-57.018h187.664
		c24.995,0,38.913,14.873,53.056,56.83l28.375,57.502c-9.265-3.431-19.461-5.335-30.173-5.335H76.849
		c-9.645,0-18.862,1.551-27.366,4.358L78.754,125.821z M103.129,285.776H51.281c-9.335,0-16.906-7.578-16.906-16.912
		c0-9.337,7.571-16.91,16.906-16.91h51.848c9.339,0,16.91,7.573,16.91,16.91C120.039,278.198,112.463,285.776,103.129,285.776z
		 M286.284,282.389h-120.6c-5.913,0-10.704-4.794-10.704-10.704c0-5.921,4.791-10.713,10.704-10.713h120.6
		c5.92,0,10.71,4.792,10.71,10.713C296.994,277.595,292.204,282.389,286.284,282.389z M395.051,285.776h-51.846
		c-9.343,0-16.91-7.578-16.91-16.912c0-9.337,7.573-16.91,16.91-16.91h51.846c9.343,0,16.916,7.573,16.916,16.91
		C411.967,278.198,404.394,285.776,395.051,285.776z"/>
</g>
<g>
</g>
<g>
</g>
<g>
</g>
<g>
</g>
<g>
</g>
<g>
</g>
<g>
</g>
<g>
</g>
<g>
</g>
<g>
</g>
<g>
</g>
<g>
</g>
<g>
</g>
<g>
</g>
<g>
</g>
</svg>
