<?xml version="1.0" encoding="iso-8859-1"?>
<!-- Generator: Adobe Illustrator 19.0.0, SVG Export Plug-In . SVG Version: 6.00 Build 0)  -->
<svg version="1.1" id="Layer_1" xmlns="http://www.w3.org/2000/svg" xmlns:xlink="http://www.w3.org/1999/xlink" x="0px" y="0px"
	 viewBox="0 0 512 512" style="enable-background:new 0 0 512 512;" xml:space="preserve">
<g>
	<g>
		<path d="M496.327,206.355h-22.56V93.637c0-42.989-34.886-77.963-77.766-77.963h-14.075c-37.803,0-69.545,27.412-76.382,63.443
			c-27.458,6.492-47.962,31.244-47.962,60.721c0,8.656,7.018,15.673,15.673,15.673h93.155c8.656,0,15.673-7.018,15.673-15.673
			c0-28.239-18.818-52.145-44.54-59.811c5.836-19.066,23.572-33.006,44.383-33.006h14.075c25.596,0,46.42,20.913,46.42,46.616
			v112.718H15.673C7.018,206.355,0,213.373,0,222.029v56.986c0,8.656,7.018,15.673,15.673,15.673h480.653
			c8.656,0,15.673-7.018,15.673-15.673v-56.986C512,213.373,504.982,206.355,496.327,206.355z"/>
	</g>
</g>
<g>
	<g>
		<path d="M473.766,366.787v-40.753H38.234v40.753c0,34.695,21.848,64.37,52.502,76.029l-26.688,26.772
			c-6.112,6.13-6.096,16.055,0.034,22.165c6.13,6.111,16.055,6.096,22.165-0.036l43.472-43.61h252.56l43.472,43.61
			c6.113,6.132,16.037,6.144,22.165,0.036c6.13-6.112,6.146-16.035,0.034-22.165l-26.688-26.772
			C451.918,431.156,473.766,401.481,473.766,366.787z"/>
	</g>
</g>
<g>
</g>
<g>
</g>
<g>
</g>
<g>
</g>
<g>
</g>
<g>
</g>
<g>
</g>
<g>
</g>
<g>
</g>
<g>
</g>
<g>
</g>
<g>
</g>
<g>
</g>
<g>
</g>
<g>
</g>
</svg>
