<?xml version="1.0" encoding="iso-8859-1"?>
<!-- Generator: Adobe Illustrator 17.1.0, SVG Export Plug-In . SVG Version: 6.00 Build 0)  -->
<!DOCTYPE svg PUBLIC "-//W3C//DTD SVG 1.1//EN" "http://www.w3.org/Graphics/SVG/1.1/DTD/svg11.dtd">
<svg version="1.1" id="Capa_1" xmlns="http://www.w3.org/2000/svg" xmlns:xlink="http://www.w3.org/1999/xlink" x="0px" y="0px"
	 viewBox="0 0 201.108 201.108" style="enable-background:new 0 0 201.108 201.108;" xml:space="preserve">
<path d="M201.108,142.26l-0.072-51.838c0.134-2.6-0.808-5.174-2.595-7.087c-1.851-1.98-4.476-3.116-7.2-3.116h-1.726
	c-5.143,0-9.441,3.979-9.787,9.058l-0.009,0.136l0,1.07c-1.864-1.006-3.995-1.579-6.257-1.579H46.946
	c0.752-1.465,1.156-3.095,1.155-4.789c-0.002-2.805-1.096-5.44-3.08-7.423l-14.677-14.66c-2.377-2.374-5.526-3.691-8.879-3.729
	c-0.808-5.336-5.267-9.278-10.663-9.278c-2.989,0-5.872,1.273-7.907,3.494c-2.081,2.271-3.121,5.344-2.853,8.433l10.345,81.309
	h5.096v9.824h8v-9.824h8.621h147.632h6.221v9.824h8v-9.824H201.108z M178.687,102.128v0.729c0,2.881-2.344,5.225-5.225,5.225H36.535
	c-2.881,0-5.225-2.344-5.225-5.225v-4.362c0-0.877,0.713-1.591,1.59-1.591h140.563C176.343,96.903,178.687,99.247,178.687,102.128z"
	/>
<g>
</g>
<g>
</g>
<g>
</g>
<g>
</g>
<g>
</g>
<g>
</g>
<g>
</g>
<g>
</g>
<g>
</g>
<g>
</g>
<g>
</g>
<g>
</g>
<g>
</g>
<g>
</g>
<g>
</g>
</svg>
