<?xml version="1.0" encoding="utf-8"?>
<!-- Generator: Adobe Illustrator 21.0.2, SVG Export Plug-In . SVG Version: 6.00 Build 0)  -->
<svg version="1.1" xmlns="http://www.w3.org/2000/svg" xmlns:xlink="http://www.w3.org/1999/xlink" x="0px" y="0px"
	 viewBox="0 0 24 24" style="enable-background:new 0 0 24 24;" xml:space="preserve">
<style type="text/css">
	.st0{fill:#FFFFFF;}
	.st1{fill:#CCE7FF;}
	.st2{fill:none;stroke:#1078FF;stroke-linecap:round;stroke-linejoin:round;stroke-miterlimit:10;}
	.st3{fill:#1078FF;}
	.st4{fill:none;}
</style>
<g id="Duotone">
	<polygon class="st0" points="18.5,10.5 17.5,11.3 17.5,5.2 10,0.5 2.5,5.2 2.5,17.5 14.8,17.5 18.5,23.5 22.5,17 22.5,13.5 	"/>
	<polygon class="st1" points="11.5,8 10,9 8.5,8 8.5,6.5 10,5.5 11.5,6.5 	"/>
	<polygon class="st1" points="10,0.5 2.5,5.2 2.5,8.2 10,3.5 17.5,8.2 17.5,5.2 	"/>
	<polygon class="st1" points="18.5,10.5 18.5,13.5 20.5,14.5 20.5,16.5 18.5,17.5 18.5,23.5 22.5,17 22.5,13.5 	"/>
	<g id="XMLID_52_">
		<g>
			<polyline class="st2" points="2.5,5.2 2.5,17.5 12.5,17.5 			"/>
		</g>
	</g>
	<g id="XMLID_51_">
		<g>
			<line class="st2" x1="17.5" y1="5.2" x2="17.5" y2="8.5"/>
		</g>
	</g>
	<polyline class="st2" points="19.5,6.5 10,0.5 0.5,6.5 	"/>
	<polygon class="st2" points="11.5,8 10,9 8.5,8 8.5,6.5 10,5.5 11.5,6.5 	"/>
	<polygon class="st2" points="18.5,23.5 22.5,17 22.5,13.5 18.5,10.5 14.5,13.5 14.5,17 	"/>
	<polygon class="st2" points="20.5,16.5 18.5,17.5 16.5,16.5 16.5,14.5 18.5,13.5 20.5,14.5 	"/>
</g>
<g id="Frames-24px">
	<rect class="st4" width="24" height="24"/>
</g>
</svg>
